<?xml version="1.0" encoding="UTF-8"?>
<svg id="Capa_1" data-name="Capa 1" xmlns="http://www.w3.org/2000/svg" viewBox="0 0 800 800">
  <defs>
    <style>
      .cls-1 {
        fill: none;
        stroke: #000;
        stroke-miterlimit: 10;
        stroke-width: 5px;
      }
    </style>
  </defs>
  <path class="cls-1" d="M404.27,457.37c-1.18,13.88,8.24,87.35,13.11,116.16,2.31,13.65,8.66,35.88,6.38,47.69-3.26,16.46-4.2,37.75-2.41,50.15,1.13,7.53,4.7,42.26-.4,54.96-2.67,6.66-7.56,40.8-7.56,40.8-12.74,32.16-5.55,30.58-5.55,30.58,3.94,4.84,10.7.38,10.7.38,5.15,3.28,8.71-.78,8.71-.78,4.42,3.66,9.57-.45,9.57-.45,5.55,2.88,10.69-2.43,10.69-2.43,3.19,1.61,3.97-.42,3.97-.42,9.56-.61-5.34-31.21-5.34-31.21-3.57-27.48,3.54-42.78,3.54-42.78,23.28-69.04,24.46-87.36,15.16-113.37-2.62-7.51-3.28-10.48-2.08-13.75,2.79-7.53.76-37.8,4.16-49.82,6.56-23.18,13.03-81.98,16.41-109.41,4.53-36.95-16.06-86.5-16.06-86.5-4.51-20.16,2.1-92,2.1-92,9.23,14.37,8.88,39.72,8.88,39.72-1.47,26.59,21.48,67.24,21.48,67.24,11.03,16.8,15.2,32.73,15.2,33.92,0,4.84-1.06,16.55-1.06,16.55l.42,10.2c.19,2.6,1.65,11.54,1.42,15.87-1.72,26.61,2.5,21.6,2.5,21.6,3.57,0,7.49-21.41,7.49-21.41,0,5.52-1.35,22.05,1.63,28.29,3.56,7.44,6.18-1.28,6.23-3.02.94-33.88,2.98-25,2.98-25,1.98,27.48,4.42,33.69,8.78,31.54,3.31-1.58.28-32.98.28-32.98,5.66,18.65,9.96,21.62,9.96,21.62,9.35,6.56,3.57-11.57,2.27-15.16-6.92-19.08-7.13-25.69-7.13-25.69,8.64,17.14,15.16,16.51,15.16,16.51,8.43-2.69-7.37-26.96-16.62-38.59-4.72-5.92-10.81-13.86-12.58-18.57-2.88-7.98-5.06-33.63-5.06-33.63-.87-30.27-8.36-43.42-8.36-43.42-12.8-20.48-15.2-58.68-15.2-58.68l-.57-64.5c-4.49-44-36.9-44.31-36.9-44.31-32.77-4.88-37.33-15.46-37.33-15.46-6.94-9.99-2.97-29.13-2.97-29.13,5.76-4.68,7.98-17.12,7.98-17.12,9.56-7.33,9.09-18.06,4.68-17.94-3.54.09-2.74-2.84-2.74-2.84C446.16,2.47,403.28,0,403.28,0h-6.54s-42.9,2.47-36.92,50.75c0,0,.8,2.94-2.77,2.84-4.4-.12-4.82,10.61,4.71,17.94,0,0,2.22,12.43,7.98,17.12,0,0,3.97,19.15-2.97,29.13,0,0-4.54,10.59-37.33,15.46,0,0-32.47.32-36.89,44.31l-.61,64.5s-2.36,38.2-15.21,58.68c0,0-7.45,13.15-8.31,43.42,0,0-2.18,25.65-5.05,33.63-1.75,4.69-7.84,12.62-12.6,18.57-9.34,11.6-25.03,35.83-16.63,38.59,0,0,6.55.64,15.16-16.51,0,0-.18,6.56-7.08,25.69-1.36,3.54-7.13,21.67,2.22,15.16,0,0,4.33-2.97,9.96-21.62,0,0-3.02,31.4.34,32.98,4.39,2.15,6.79-4.06,8.77-31.54,0,0,2.03-8.88,2.97,25,.05,1.75,2.61,10.46,6.19,3.02,3.02-6.23,1.66-22.74,1.66-28.29,0,0,3.87,21.41,7.49,21.41,0,0,4.26,5.01,2.51-21.6-.28-4.35,1.24-13.27,1.43-15.87l.41-10.2s-1.06-11.69-1.06-16.55c0-1.21,4.18-17.12,15.2-33.92,0,0,22.93-40.67,21.45-67.24,0,0-.32-25.36,8.91-39.72,0,0,6.55,71.83,2.11,92,0,0-20.62,49.54-16.08,86.5,3.35,27.51,9.81,86.22,16.39,109.41,3.44,12,1.4,42.26,4.16,49.82,1.24,3.28.59,6.31-2.08,13.75-9.26,26.02-8.08,44.34,15.2,113.37,0,0,7.17,15.3,3.54,42.78,0,0-14.87,30.6-5.35,31.21,0,0,.74,2.03,3.97.42,0,0,5.15,5.31,10.71,2.43,0,0,5.15,4.11,9.55.45,0,0,3.53,4.06,8.67.78,0,0,6.75,4.56,10.77-.38,0,0,7.13,1.58-5.56-30.58,0,0-4.86-34.09-7.54-40.8-5.11-12.7-1.5-47.5-.41-54.96,1.76-12.47.81-33.71-2.4-50.15-2.35-11.78,4.01-34.02,6.36-47.69,4.83-28.78,14.29-102.26,13.11-116.16l3.91,1.37c2.8,0,4.57-1.36,4.57-1.36Z"/>
</svg>